<mxfile host="app.diagrams.net" modified="2020-08-30T07:56:15.987Z" agent="5.0 (Windows NT 10.0; Win64; x64) AppleWebKit/537.36 (KHTML, like Gecko) Chrome/85.0.4183.83 Safari/537.36" etag="106MEq3qrmaciJ8PNXIk" version="13.6.5" type="github">
  <diagram id="Vxj_W6UleS2StSN6uLvl" name="Page-1">
    <mxGraphModel dx="2272" dy="766" grid="1" gridSize="10" guides="1" tooltips="1" connect="1" arrows="1" fold="1" page="1" pageScale="1" pageWidth="850" pageHeight="1100" math="0" shadow="0">
      <root>
        <mxCell id="0" />
        <mxCell id="1" parent="0" />
        <mxCell id="jh4VPAc8DCzKsRjPxqhO-1" value="" style="whiteSpace=wrap;html=1;aspect=fixed;" vertex="1" parent="1">
          <mxGeometry x="-10" y="180" width="860" height="860" as="geometry" />
        </mxCell>
        <mxCell id="dramC-exWE9ODaxWlpGh-1" value="" style="shape=actor;whiteSpace=wrap;html=1;" parent="1" vertex="1">
          <mxGeometry x="40" y="420" width="40" height="60" as="geometry" />
        </mxCell>
        <mxCell id="dramC-exWE9ODaxWlpGh-2" value="User" style="text;html=1;strokeColor=none;fillColor=none;align=center;verticalAlign=middle;whiteSpace=wrap;rounded=0;" parent="1" vertex="1">
          <mxGeometry x="40" y="480" width="40" height="20" as="geometry" />
        </mxCell>
        <mxCell id="dramC-exWE9ODaxWlpGh-5" value="Streaming service" style="ellipse;whiteSpace=wrap;html=1;align=center;newEdgeStyle={&quot;edgeStyle&quot;:&quot;entityRelationEdgeStyle&quot;,&quot;startArrow&quot;:&quot;none&quot;,&quot;endArrow&quot;:&quot;none&quot;,&quot;segment&quot;:10,&quot;curved&quot;:1};treeFolding=1;treeMoving=1;" parent="1" vertex="1">
          <mxGeometry x="350" y="380" width="170" height="140" as="geometry" />
        </mxCell>
        <mxCell id="dramC-exWE9ODaxWlpGh-8" value="&lt;font style=&quot;font-size: 9px&quot;&gt;Stakable&amp;nbsp;&lt;br&gt;Token&lt;/font&gt;" style="html=1;whiteSpace=wrap;aspect=fixed;shape=isoRectangle;" parent="1" vertex="1">
          <mxGeometry x="210" y="440" width="83.33" height="50" as="geometry" />
        </mxCell>
        <mxCell id="dramC-exWE9ODaxWlpGh-12" value="" style="html=1;whiteSpace=wrap;aspect=fixed;shape=isoRectangle;" parent="1" vertex="1">
          <mxGeometry x="210" y="540" width="83.33" height="50" as="geometry" />
        </mxCell>
        <mxCell id="dramC-exWE9ODaxWlpGh-11" value="" style="html=1;whiteSpace=wrap;aspect=fixed;shape=isoRectangle;" parent="1" vertex="1">
          <mxGeometry x="210" y="530" width="83.33" height="50" as="geometry" />
        </mxCell>
        <mxCell id="dramC-exWE9ODaxWlpGh-9" value="&lt;font style=&quot;font-size: 9px&quot;&gt;Staking &lt;br&gt;Rewards&lt;/font&gt;" style="html=1;whiteSpace=wrap;aspect=fixed;shape=isoRectangle;" parent="1" vertex="1">
          <mxGeometry x="210" y="520" width="83.33" height="50" as="geometry" />
        </mxCell>
        <mxCell id="dramC-exWE9ODaxWlpGh-13" value="" style="endArrow=none;dashed=1;html=1;dashPattern=1 3;strokeWidth=2;" parent="1" edge="1">
          <mxGeometry width="50" height="50" relative="1" as="geometry">
            <mxPoint x="220" y="530" as="sourcePoint" />
            <mxPoint x="220" y="480" as="targetPoint" />
          </mxGeometry>
        </mxCell>
        <mxCell id="dramC-exWE9ODaxWlpGh-14" value="" style="endArrow=none;dashed=1;html=1;dashPattern=1 3;strokeWidth=2;" parent="1" edge="1">
          <mxGeometry width="50" height="50" relative="1" as="geometry">
            <mxPoint x="280" y="530" as="sourcePoint" />
            <mxPoint x="280" y="480" as="targetPoint" />
          </mxGeometry>
        </mxCell>
        <mxCell id="dramC-exWE9ODaxWlpGh-16" value="" style="endArrow=classic;html=1;" parent="1" edge="1">
          <mxGeometry width="50" height="50" relative="1" as="geometry">
            <mxPoint x="300" y="540" as="sourcePoint" />
            <mxPoint x="360" y="500" as="targetPoint" />
          </mxGeometry>
        </mxCell>
        <mxCell id="dramC-exWE9ODaxWlpGh-17" value="" style="endArrow=classic;html=1;" parent="1" edge="1">
          <mxGeometry width="50" height="50" relative="1" as="geometry">
            <mxPoint x="110" y="464.71" as="sourcePoint" />
            <mxPoint x="190" y="464.71" as="targetPoint" />
          </mxGeometry>
        </mxCell>
        <mxCell id="dramC-exWE9ODaxWlpGh-19" value="" style="endArrow=classic;html=1;" parent="1" edge="1">
          <mxGeometry width="50" height="50" relative="1" as="geometry">
            <mxPoint x="340" y="420" as="sourcePoint" />
            <mxPoint x="110" y="420" as="targetPoint" />
          </mxGeometry>
        </mxCell>
        <mxCell id="dramC-exWE9ODaxWlpGh-20" value="Artists&#39;&amp;nbsp;&lt;br&gt;Royalties Pool" style="whiteSpace=wrap;html=1;aspect=fixed;" parent="1" vertex="1">
          <mxGeometry x="375" y="560" width="120" height="120" as="geometry" />
        </mxCell>
        <mxCell id="dramC-exWE9ODaxWlpGh-21" value="" style="endArrow=classic;html=1;" parent="1" edge="1">
          <mxGeometry width="50" height="50" relative="1" as="geometry">
            <mxPoint x="300" y="570" as="sourcePoint" />
            <mxPoint x="360" y="600" as="targetPoint" />
          </mxGeometry>
        </mxCell>
        <mxCell id="dramC-exWE9ODaxWlpGh-22" value="&lt;div style=&quot;text-align: justify&quot;&gt;&lt;span style=&quot;font-size: 8px&quot;&gt;Staking rewards&amp;nbsp;&lt;/span&gt;&lt;/div&gt;&lt;font style=&quot;font-size: 8px&quot;&gt;&lt;div style=&quot;text-align: justify&quot;&gt;&lt;span&gt;pay for the service&lt;/span&gt;&lt;/div&gt;&lt;div style=&quot;text-align: justify&quot;&gt;&lt;span&gt;and the royalties&lt;/span&gt;&lt;/div&gt;&lt;/font&gt;" style="text;html=1;strokeColor=none;fillColor=none;align=center;verticalAlign=middle;whiteSpace=wrap;rounded=0;rotation=0;" parent="1" vertex="1">
          <mxGeometry x="290" y="525" width="120" height="35" as="geometry" />
        </mxCell>
        <mxCell id="dramC-exWE9ODaxWlpGh-23" value="&lt;font style=&quot;font-size: 10px&quot;&gt;User enjoys music&lt;/font&gt;" style="text;html=1;strokeColor=none;fillColor=none;align=center;verticalAlign=middle;whiteSpace=wrap;rounded=0;" parent="1" vertex="1">
          <mxGeometry x="183.32999999999998" y="400" width="110" height="20" as="geometry" />
        </mxCell>
        <mxCell id="dramC-exWE9ODaxWlpGh-24" value="" style="endArrow=classic;html=1;" parent="1" edge="1">
          <mxGeometry width="50" height="50" relative="1" as="geometry">
            <mxPoint x="510" y="630" as="sourcePoint" />
            <mxPoint x="600" y="630" as="targetPoint" />
          </mxGeometry>
        </mxCell>
        <mxCell id="dramC-exWE9ODaxWlpGh-25" value="" style="shape=actor;whiteSpace=wrap;html=1;" parent="1" vertex="1">
          <mxGeometry x="620" y="580" width="40" height="60" as="geometry" />
        </mxCell>
        <mxCell id="dramC-exWE9ODaxWlpGh-26" value="Artist" style="text;html=1;strokeColor=none;fillColor=none;align=center;verticalAlign=middle;whiteSpace=wrap;rounded=0;" parent="1" vertex="1">
          <mxGeometry x="620" y="640" width="40" height="20" as="geometry" />
        </mxCell>
        <mxCell id="dramC-exWE9ODaxWlpGh-28" value="" style="verticalLabelPosition=bottom;verticalAlign=top;html=1;shape=mxgraph.basic.polygon;polyCoords=[[0.25,0],[0.75,0],[1,0.25],[1,0.75],[0.75,1],[0.25,1],[0,0.75],[0,0.25]];polyline=0;" parent="1" vertex="1">
          <mxGeometry x="385" y="740" width="100" height="100" as="geometry" />
        </mxCell>
        <mxCell id="dramC-exWE9ODaxWlpGh-29" value="Artist&amp;nbsp;&lt;br&gt;generated markets" style="text;html=1;strokeColor=none;fillColor=none;align=center;verticalAlign=middle;whiteSpace=wrap;rounded=0;" parent="1" vertex="1">
          <mxGeometry x="409.17" y="780" width="51.66" height="20" as="geometry" />
        </mxCell>
        <mxCell id="dramC-exWE9ODaxWlpGh-30" value="" style="endArrow=classic;html=1;exitX=-0.096;exitY=1.271;exitDx=0;exitDy=0;exitPerimeter=0;" parent="1" source="dramC-exWE9ODaxWlpGh-26" edge="1">
          <mxGeometry width="50" height="50" relative="1" as="geometry">
            <mxPoint x="580" y="710" as="sourcePoint" />
            <mxPoint x="500" y="780" as="targetPoint" />
          </mxGeometry>
        </mxCell>
        <mxCell id="dramC-exWE9ODaxWlpGh-31" value="" style="endArrow=classic;html=1;" parent="1" source="dramC-exWE9ODaxWlpGh-12" edge="1">
          <mxGeometry width="50" height="50" relative="1" as="geometry">
            <mxPoint x="280" y="690" as="sourcePoint" />
            <mxPoint x="380" y="750" as="targetPoint" />
          </mxGeometry>
        </mxCell>
        <mxCell id="dramC-exWE9ODaxWlpGh-32" value="" style="endArrow=classic;html=1;" parent="1" edge="1">
          <mxGeometry width="50" height="50" relative="1" as="geometry">
            <mxPoint x="380" y="780" as="sourcePoint" />
            <mxPoint x="90" y="510" as="targetPoint" />
          </mxGeometry>
        </mxCell>
      </root>
    </mxGraphModel>
  </diagram>
</mxfile>
